<?xml version="1.0" encoding="UTF-8" standalone="no"?>
<!-- Generator: Adobe Illustrator 22.1.0, SVG Export Plug-In . SVG Version: 6.00 Build 0)  -->

<svg
   version="1.1"
   id="Layer_1"
   x="0px"
   y="0px"
   viewBox="0 0 511.99999 512.00002"
   xml:space="preserve"
   sodipodi:docname="icon.svg"
   width="512"
   height="512"
   inkscape:version="1.3 (0e150ed6c4, 2023-07-21)"
   inkscape:export-filename="icon-maskable.png"
   inkscape:export-xdpi="96"
   inkscape:export-ydpi="96"
   xmlns:inkscape="http://www.inkscape.org/namespaces/inkscape"
   xmlns:sodipodi="http://sodipodi.sourceforge.net/DTD/sodipodi-0.dtd"
   xmlns="http://www.w3.org/2000/svg"
   xmlns:svg="http://www.w3.org/2000/svg"><defs
   id="defs12" /><sodipodi:namedview
   id="namedview12"
   pagecolor="#ffffff"
   bordercolor="#000000"
   borderopacity="0.25"
   inkscape:showpageshadow="2"
   inkscape:pageopacity="0.0"
   inkscape:pagecheckerboard="0"
   inkscape:deskcolor="#d1d1d1"
   showgrid="true"
   inkscape:clip-to-page="true"
   inkscape:zoom="1.2316035"
   inkscape:cx="159.14213"
   inkscape:cy="256.98206"
   inkscape:window-width="1920"
   inkscape:window-height="1129"
   inkscape:window-x="-8"
   inkscape:window-y="-8"
   inkscape:window-maximized="1"
   inkscape:current-layer="Layer_1"><inkscape:grid
     id="grid12"
     units="px"
     originx="0"
     originy="0"
     spacingx="0.99999999"
     spacingy="1"
     empcolor="#0099e5"
     empopacity="0.30196078"
     color="#0099e5"
     opacity="0.14902"
     empspacing="64"
     dotted="false"
     gridanglex="30"
     gridanglez="30"
     visible="true" /></sodipodi:namedview>&#10;<style
   type="text/css"
   id="style1">&#10;	.st0{fill:#80BC00;}&#10;</style>&#10;&#10;&#10;&#10;<path
   class="st0"
   d="m 497.15027,324.55159 c -19.065,62.115 -66.42,115.743 -124.107,145.263 -54.612,28.044 -135.915,41.082 -210.207,8.856 -99.999002,-43.542 -131.856,-113.898 -145.755,-157.071 -9.9629997,-31.119 -15.2520001,-66.912 -12.1769997,-99.138 3.198,-33.702 13.4069997,-66.297 29.7659997,-95.94 14.268,-25.83 33.578998,-48.093001 55.841998,-67.404001 11.070002,-9.593994 23.001002,-17.957994 35.793002,-24.968994 6.027,-3.198 12.054,-6.642 18.573,-8.733 6.273,-2.091 14.883,-5.781 21.402,-3.444 -1.353,-0.492 -8.241,3.69 -9.717,4.428 -1.107,0.492 -9.471,5.289 -9.717,5.166 2.829,-0.861 25.584,-10.578 26.814,-8.487 0,-0.123 -12.915,5.904 -12.915,5.781 0.492,0.861 17.466,-4.551 19.311,-5.412 -17.097,8.487 -34.194,17.22 -50.43,27.429 -4.305,2.706 -8.364,6.273 -12.669,8.732994 15.498,-9.470994 56.211,-31.487994 60.516,-33.455994 0.492,-0.246 0.984,2.091 0.984,2.214 -1.107,0.861 -2.337,1.599 -3.567,2.214 -2.337,1.353 -4.551,2.829 -7.011,4.059 1.599,-0.861 9.594,-5.535 11.685,-3.69 -0.123,-0.123 -15.867,9.963 -16.974,10.578 -5.904,3.444 -11.808,7.257 -17.958,10.455 10.701,-5.535 35.793,-17.835 37.515,-18.45 0.984,-0.369 7.011,1.23 7.011,1.599 0.615,1.722 -38.622,21.033 -42.435,23.369994 -13.53,8.241 -26.076,17.835 -37.638,28.536 -23.370002,21.402001 -41.697002,47.724001 -53.751,76.998001 -26.076,63.591 -19.926,135.792 14.021998,195.078 15.99,27.798 38.007002,51.537 64.575002,69.618 13.284,9.102 27.429,16.851 42.189,23.124 15.621,6.642 31.98,9.84 48.462,13.284 33.21,6.765 67.896,3.321 99.999,-6.396 16.113,-5.043 31.734,-11.685 46.494,-19.803 14.145,-7.749 26.076,-17.22 38.622,-27.183 24.6,-19.434 42.681,-49.077 55.719,-77.121 6.888,-14.883 10.701,-30.75 14.76,-46.494 3.813,-15.744 5.412,-31.857 4.551,-48.093 -1.353,-33.087 -9.348,-65.436 -23.493,-95.325 -7.011,-14.391 -15.744,-27.921 -25.83,-40.344 -7.749,-10.086001 -16.482,-19.434001 -25.83,-28.044001 -2.091,-1.968 -4.551,-3.69 -6.519,-5.781 0.861,-0.738 4.059,2.46 5.166,2.952 -3.936,-4.428 -9.225,-7.872 -13.899,-11.439 -2.337,-1.845 -15.252,-8.240994 -15.129,-10.700994 12.915,7.010994 24.969,16.604994 35.916,26.321994 5.781,5.166 21.402,22.017003 23.862,24.846001 0.984,1.23 2.091,2.952 3.69,3.69 -2.214,-5.412 -8.241,-11.069998 -12.054,-15.375001 -5.166,-6.027 -10.701,-11.808 -16.605,-17.097 -5.166,-4.674 -10.701,-8.979 -16.359,-13.038 -4.92,-3.566994 -11.685,-6.764994 -15.867,-11.069994 1.845,-1.23 13.038,7.38 15.006,8.609994 5.904,3.936 11.439,8.364 16.728,13.038 5.412,4.674 23.124,25.215003 27.798,28.536003 -1.23,-3.936 -6.027,-7.257003 -8.364,-10.209003 -1.599,-1.968 -15.375,-13.899 -14.76,-15.744 1.599,-0.738 7.995,6.642 9.225,7.749 0.861,0.861 4.059,4.551 5.043,4.305 -1.476,-0.984 -2.583,-3.321 -3.813,-4.551 -2.46,-2.46 -5.043,-4.797 -7.134,-7.626 2.091,-0.492 7.749,5.904 9.225,7.503 3.813,3.69 26.199,29.151001 27.798,32.595001 1.107,-1.23 -8.856,-13.161 -10.086,-14.636998 -1.353,-1.845 -14.268,-16.236003 -13.776,-16.851003 0.615,0.615 10.086,10.455 9.963,10.455 0.615,-0.369 -2.091,-1.968 -0.615,-2.46 4.182,4.551 8.979,9.717001 12.177,15.006001 0.492,0.738 2.46,1.599 3.321,2.706 0.861,1.23 3.567,6.765 5.289,6.888 0.369,-2.829 -11.439,-14.76 -9.84,-15.989998 12.669,14.267998 22.017,32.717998 29.766,50.060998 8.118,18.204 17.958,40.59 21.525,80.319 3.444,35.916 2.091,56.703 -9.102,95.202 -1.968,6.15 -0.246,-0.369 0,0"
   id="path2"
   style="display:inline;stroke-width:1.23" />&#10;&#10;<path
   class="st0"
   d="m 386.81927,48.293595 c 0,0.246 0,0.492 0,0.738 -1.107,-0.369 -11.931,-7.134 -16.728,-9.225 -0.615,-0.369 -1.353,-0.861 -2.214,-0.492 -1.722,-0.369 -3.321,-0.984 -4.92,-1.845 -0.861,-1.353 -2.46,-1.845 -3.813,-2.337 -3.567,-1.353 -6.765,-3.321 -10.455,-4.797 0.738,-0.123 1.476,0.123 2.214,0.492 11.931,4.428 23.493,10.086 34.563,16.605 0.492,0.123 0.861,0.492 1.353,0.861"
   id="path4"
   style="display:inline;stroke-width:1.23" />&#10;<path
   class="st0"
   d="m 401.08727,51.491595 c 1.722,0.492 3.444,1.353 4.797,2.583 4.674,3.443994 16.605,13.406994 18.081,14.759994 0.369,0.246 0.984,0.615 0.492,0.984 -0.492,0.369 -0.738,-0.123 -1.107,-0.369 -4.551,-4.305 -19.803,-15.989994 -22.263,-17.957994"
   id="path5"
   style="display:inline;stroke-width:1.23" />&#10;<path
   class="st0"
   d="m 423.35027,61.454589 c 3.813,3.075 7.503,6.396 11.07,9.84 2.091,1.968 4.182,4.182 6.15,6.273 0.492,0.369 0.861,0.861 1.107,1.353 l -0.246,0.246 c -2.583,-2.583 -14.883,-14.268 -18.45,-17.589 0.246,0 0.246,0 0.369,-0.123"
   id="path6"
   style="display:inline;stroke-width:1.23" />&#10;<path
   class="st0"
   d="m 433.80527,64.529589 c 0.246,0.123 0.492,0.369 0.861,0.615 5.289,4.797 10.209,9.963 15.006,15.252 0.246,0.246 0.492,0.492 0.492,0.984 -0.492,0.123 -0.615,-0.246 -0.861,-0.369 -5.043,-5.412 -15.621,-15.99 -15.744,-16.236 l 0.246,-0.246"
   id="path7"
   style="display:inline;stroke-width:1.23" />&#10;<path
   class="st0"
   d="m 461.72627,96.140592 c -2.46,-3.075003 -9.717,-11.931003 -10.824,-13.284003 -0.492,-0.369 -0.738,-0.861 -0.738,-1.476 1.107,0.861 2.214,1.845 3.075,2.952 2.46,3.075 8.61,10.455 8.979,11.316003 l -0.492,0.492"
   id="path8"
   style="display:inline;stroke-width:1.23" />&#10;<path
   class="st0"
   d="m 369.35327,35.993595 c 3.813,1.353 7.38,3.075 10.701,5.166 l -0.123,0.246 -10.578,-5.412"
   id="path9"
   style="display:inline;stroke-width:1.23" />&#10;<path
   class="st0"
   d="m 442.29227,78.182589 0.369,-0.369"
   id="path10"
   style="display:inline;stroke-width:1.23" />&#10;<path
   class="st0"
   d="m 437.61827,72.770589 -0.246,0.369"
   id="path11"
   style="display:inline;stroke-width:1.23" />&#10;<path
   class="st0"
   d="m 442.29227,77.444589 c -1.23,-1.722 -2.706,-3.198 -4.428,-4.428 l -4.428,-4.182 v 0 c -0.123,-0.123 -0.246,-0.246 -0.369,-0.123 -0.123,0.123 0,0.246 0.123,0.369 l 4.305,4.428 4.428,4.305 c 0.123,0.123 8.487,9.348 8.487,9.348 0.246,0.246 0.369,0.369 0.615,0.615 0.123,-0.246 0.246,-0.369 0.492,-0.492 -2.583,-3.198 -5.289,-6.15 -8.241,-8.856 0,0 -0.861,-0.861 -0.984,-0.984"
   id="path12"
   style="display:inline;stroke-width:1.23" />&#10;<path
   d="m 136.28036,193.98129 c 11.73223,16.68558 34.84352,20.72309 51.53869,9.01294 l 24.94512,19.05113 c -8.3885,17.29855 -7.40348,38.52858 4.41567,55.33778 6.28338,8.93623 14.77899,15.41238 24.23029,19.21379 l -8.15653,39.19183 c -5.27031,0.68384 -10.45411,2.60903 -15.09432,5.87173 -15.30582,10.76207 -19.00214,31.97062 -8.24007,47.27645 10.76207,15.30582 31.97013,19.00249 47.27596,8.24043 15.30583,-10.76208 19.00248,-31.97014 8.24041,-47.27596 -2.811,-3.99781 -6.33825,-7.19492 -10.28339,-9.55794 l 8.2815,-39.79188 c 10.36635,-0.2807 20.76301,-3.50115 29.86342,-9.89997 9.6721,-6.8008 16.46294,-16.19316 20.09879,-26.58412 l 20.50728,3.30331 c 0.83709,4.74203 2.69283,9.37827 5.64015,13.56995 10.76206,15.30582 31.97014,19.00249 47.27597,8.24042 15.30582,-10.76206 19.00248,-31.97015 8.24042,-47.27596 -10.76207,-15.30583 -31.97014,-19.00249 -47.27597,-8.24042 -4.44536,3.12569 -7.9037,7.13593 -10.32085,11.62316 l -21.12565,-3.40285 c -0.69709,-9.52594 -3.89344,-18.98548 -9.77519,-27.35051 -17.32746,-24.64312 -51.47212,-30.59513 -76.11524,-13.26767 -1.39062,0.97779 -2.71864,2.01206 -3.98915,3.09238 l -25.08186,-19.15524 c 3.92135,-10.95606 2.65493,-23.58617 -4.53219,-33.8077 -11.73909,-16.69626 -34.87467,-20.72852 -51.57162,-8.9883 -16.69794,11.74092 -20.73151,34.87676 -8.99164,51.57322 z"
   id="path1-5"
   style="display:inline;fill:#80bc00;fill-opacity:1;stroke:#76ad00;stroke-width:1.05217;stroke-dasharray:none;stroke-opacity:1;image-rendering:auto" /><path
   d="m 98.619272,168.86943 c 15.154498,22.23303 45.007298,27.61289 66.572418,12.00947 l 32.22156,25.38505 c -10.83541,23.0498 -9.56306,51.33818 5.70371,73.73593 8.11623,11.90726 19.08999,20.53653 31.29822,25.6018 l -10.53578,52.22193 c -6.80764,0.9112 -13.50355,3.47645 -19.4973,7.8239 -19.77049,14.34014 -24.54502,42.59989 -10.64368,62.99445 13.90134,20.39454 41.29575,25.32024 61.06626,10.98012 19.77051,-14.34014 24.54546,-42.59925 10.64412,-62.99379 -3.63096,-5.32696 -8.1871,-9.58701 -13.28303,-12.73567 l 10.69719,-53.02148 c 13.3902,-0.37402 26.81954,-4.66518 38.57452,-13.19141 12.49343,-9.06186 21.26515,-21.5769 25.96157,-35.42254 l 26.48921,4.40156 c 1.08126,6.31861 3.47832,12.49626 7.28537,18.08155 13.90133,20.39455 41.29576,25.32025 61.06627,10.98011 19.77049,-14.34012 24.54546,-42.59926 10.64413,-62.99379 -13.90134,-20.39456 -41.29576,-25.32025 -61.06627,-10.98011 -5.74206,4.16489 -10.20919,9.50841 -13.33142,15.48751 l -27.28796,-4.5342 c -0.90043,-12.69302 -5.02915,-25.29758 -12.62659,-36.44373 -22.38184,-32.83621 -66.48643,-40.76709 -98.3179,-17.67877 -1.79626,1.30288 -3.51166,2.68101 -5.15277,4.12051 l -32.39819,-25.52378 c 5.0652,-14.59862 3.42937,-31.42787 -5.85422,-45.04775 C 161.68535,89.87904 131.80117,84.506175 110.23375,100.14966 88.66506,115.79409 83.454906,146.6219 98.619272,168.86943 Z"
   id="path1"
   style="display:none;fill:#80bc00;fill-opacity:1;stroke:#76ad00;stroke-width:1.38037;stroke-dasharray:none;stroke-opacity:1;image-rendering:auto" /></svg>
