<?xml version="1.0" encoding="UTF-8" standalone="no"?>
<svg
   class="img-fluid"
   id="outputsvg"
   style="transform: matrix(1, 0, 0, 1, -16, -4); transform-origin: 50% 50% 0px; cursor: move; transition: none;"
   width="1920"
   height="1920"
   viewBox="0 0 19200 19200"
   version="1.1"
   sodipodi:docname="icon.svg"
   inkscape:version="1.3.1 (91b66b0783, 2023-11-16)"
   xmlns:inkscape="http://www.inkscape.org/namespaces/inkscape"
   xmlns:sodipodi="http://sodipodi.sourceforge.net/DTD/sodipodi-0.dtd"
   xmlns="http://www.w3.org/2000/svg"
   xmlns:svg="http://www.w3.org/2000/svg">
  <defs
     id="defs2" />
  <sodipodi:namedview
     id="namedview2"
     pagecolor="#505050"
     bordercolor="#eeeeee"
     borderopacity="1"
     inkscape:showpageshadow="0"
     inkscape:pageopacity="0"
     inkscape:pagecheckerboard="0"
     inkscape:deskcolor="#505050"
     inkscape:zoom="0.4640625"
     inkscape:cx="958.92256"
     inkscape:cy="960"
     inkscape:window-width="1920"
     inkscape:window-height="1129"
     inkscape:window-x="-8"
     inkscape:window-y="-8"
     inkscape:window-maximized="1"
     inkscape:current-layer="outputsvg" />
  <g
     id="l3jkzIFt2rS53i7jAH50zh9"
     fill="#cb4b16"
     style="display:inline">
    <g
       id="g1">
      <path
         id="pUvEwOr4S"
         d="m 1335.5649,18143.483 c -37.6423,-16.365 -85.1041,-55.645 -106.3801,-85.104 -34.369,-49.098 -39.2788,-73.647 -39.2788,-214.396 0,-180.029 19.6394,-222.58 132.5659,-286.408 l 63.828,-37.642 h 1957.393 1959.0297 l 11.4562,-60.555 c 6.5465,-34.369 8.1832,-430.43 6.5465,-880.5 l -4.9098,-818.307 837.9475,-4.911 837.9475,-3.273 v -2847.712 -2847.712 h -266.7684 -266.7684 l -72.0113,-150.569 c -39.2786,-83.4674 -132.5658,-281.498 -209.4868,-438.6132 -75.2843,-157.1151 -157.1152,-330.5965 -183.3011,-384.6047 -24.5492,-54.0084 -126.0193,-266.7686 -225.8529,-474.6188 -98.197,-206.2136 -206.2137,-435.3399 -240.5826,-507.351 -32.7323,-72.0111 -103.1069,-219.3066 -155.4786,-327.3232 -50.7351,-108.0167 -216.0334,-453.3427 -366.602,-769.2097 l -271.6783,-572.8156 -368.2387,-4.9099 -368.2386,-3.2732 v -695.5619 -695.562 h 1358.3915 1358.3914 v -458.2525 -458.2525 h 1170.1807 1170.1805 v -1816.644 c 0,-1996.6718 -4.9098,-1885.3819 98.197,-1939.39024 58.9182,-31.09572 180.0277,-31.09572 252.0388,-1.63661 116.1999,49.09847 108.0168,-103.10683 108.0168,1927.93395 v 1829.7369 h 1170.1805 1170.181 v 458.2525 458.2525 h 1358.391 1358.391 v 695.562 695.5619 h -368.238 c -368.239,0 -369.875,0 -382.969,37.6421 -14.729,36.0055 -54.008,116.1998 -394.423,829.7644 -101.471,211.1235 -209.488,440.2498 -240.584,507.3511 -32.732,67.1013 -94.923,199.6671 -140.749,294.5909 -44.188,94.9237 -112.926,238.9459 -150.568,319.1402 -37.642,81.8308 -111.29,235.6727 -163.661,343.6894 -50.736,108.0166 -114.563,240.5826 -139.112,294.5909 -24.551,54.0083 -135.841,286.4078 -245.494,513.8975 -109.653,229.1262 -206.213,433.7033 -214.396,454.9788 -13.093,37.643 -18.003,37.643 -284.771,37.643 h -270.042 v 2847.712 2847.712 h 839.584 837.948 l -6.547,810.125 c -3.273,445.16 0,842.858 4.91,883.773 l 11.456,73.648 h 1957.393 1957.394 l 70.373,40.915 c 122.747,72.011 173.482,206.214 137.476,374.786 -22.912,109.653 -65.464,168.571 -153.841,207.849 -65.465,29.459 -310.958,31.096 -7947.4088,31.096 -7649.5442,0 -7881.9437,-1.637 -7947.4083,-31.096 z M 7973.6802,9479.2371 c 0,-29.459 -109.6532,-597.3649 -391.1512,-2032.6774 l -109.6534,-556.4494 -878.8628,-4.9099 c -482.8019,-1.6365 -878.863,-1.6365 -878.863,1.6366 0,3.2733 50.7351,112.9266 112.9266,242.2192 150.5687,315.867 230.7628,487.7117 409.154,865.77 178.3912,378.0584 189.8475,400.971 432.0667,908.322 103.1069,216.0334 207.8502,438.6132 234.0362,495.8947 l 45.8251,101.4703 h 512.2609 c 399.3344,0 512.2609,-4.9099 512.2609,-21.2761 z m 1950.8465,-134.2025 c 37.6422,-199.6672 162.0253,-836.3109 330.5963,-1703.7175 76.921,-396.0611 140.749,-729.9308 140.749,-739.7505 0,-14.7296 -281.498,-19.6394 -1114.5355,-19.6394 H 8166.801 l 9.8196,62.1914 c 13.093,68.7379 91.6505,477.8919 304.4107,1574.4248 81.8308,418.9738 157.1152,801.9419 165.2982,851.0405 9.8197,49.0984 21.276,99.8336 24.5493,111.2899 4.9098,16.3661 135.8391,19.6394 615.3677,16.3661 l 610.4577,-4.9098 z m 1788.8213,-54.0083 c 54.009,-114.5632 153.842,-325.6866 222.58,-469.7088 248.766,-520.444 309.321,-649.7367 309.321,-654.6465 0,-3.2733 76.92,-163.6616 171.845,-360.0556 94.923,-194.7574 171.845,-356.7824 171.845,-360.0557 0,-3.2731 58.917,-127.656 130.928,-276.588 72.011,-150.5687 130.929,-276.5882 130.929,-281.498 0,-3.2733 -396.061,-4.9098 -878.862,-3.2733 l -878.863,4.9099 -111.29,564.6325 c -60.555,310.9572 -168.572,867.4067 -240.583,1235.6454 -72.011,369.8752 -135.839,702.1082 -142.385,741.387 l -11.457,68.738 h 513.898 l 513.897,-1.6367 z"
         inkscape:label="pUvEwOr4S"
         style="stroke-width:1.63661" />
    </g>
  </g>
</svg>
